<svg xmlns="http://www.w3.org/2000/svg" viewBox="0 0 533.55 61.19"><defs><style>.cls-1{fill:#0c2344;}</style></defs><g id="Layer_2" data-name="Layer 2"><g id="Layer_1-2" data-name="Layer 1"><path class="cls-1" d="M13.89,48.63H27.41l.07.18a19,19,0,0,0,4.37,6.74,19.29,19.29,0,0,0,27.26,0L81.78,32.88A19.27,19.27,0,0,0,54.65,5.5l-.1.1-.14,0a6.07,6.07,0,0,0-.85-.06H23.76c-2.37,0-3.61,1.42-3.61,2.83s1.12,2.74,3.59,2.74H49.06l-7,6.94H28.05a2.64,2.64,0,0,0-2.66,2.83A2.55,2.55,0,0,0,28,23.6h8.51l-4.69,4.69A18.85,18.85,0,0,0,30,30.43l-.09.11H3.61C1.24,30.54,0,32,0,33.37s1.12,2.74,3.58,2.74H27.1l-.11.36a19.66,19.66,0,0,0-.76,6.3l0,.29H13.91a2.77,2.77,0,0,0-3,2.83A2.7,2.7,0,0,0,13.89,48.63ZM59.11,10.21A12.78,12.78,0,1,1,77.19,28.29l-9,9L50.07,19.25Z"/><path class="cls-1" d="M16.6,18H13a2.78,2.78,0,0,0-3,2.83,2.73,2.73,0,0,0,.72,1.89A3,3,0,0,0,13,23.6h3.53a2.85,2.85,0,0,0,3-2.85,2.65,2.65,0,0,0-.72-1.87A3,3,0,0,0,16.6,18Z"/><path class="cls-1" d="M118,20.1h4.86v21H118Z"/><path class="cls-1" d="M154.27,20.1v21h-4L139.81,28.35V41.1H135v-21h4l10.44,12.75V20.1Z"/><path class="cls-1" d="M170.8,24.06h-6.72v-4h18.3v4h-6.72v17H170.8Z"/><path class="cls-1" d="M208.45,37.2v3.9H192.19v-21h15.87V24H197v4.56h9.75v3.78H197V37.2Z"/><path class="cls-1" d="M232.9,41.1l-4.05-5.85h-4.47V41.1h-4.86v-21h9.09c5.61,0,9.12,2.91,9.12,7.62a6.83,6.83,0,0,1-4.32,6.63l4.71,6.75Zm-4.56-17h-4v7.32h4c3,0,4.47-1.38,4.47-3.66S231.31,24.06,228.34,24.06Z"/><path class="cls-1" d="M268,20.1v21h-4L253.57,28.35V41.1h-4.8v-21h4l10.44,12.75V20.1Z"/><path class="cls-1" d="M294,36.6h-9.75l-1.86,4.5h-5l9.36-21h4.8l9.39,21h-5.1Zm-1.53-3.69-3.33-8-3.33,8Z"/><path class="cls-1" d="M312.49,24.06h-6.72v-4h18.3v4h-6.72v17h-4.86Z"/><path class="cls-1" d="M333.88,20.1h4.86v21h-4.86Z"/><path class="cls-1" d="M349.6,30.6c0-6.24,4.86-10.86,11.49-10.86s11.49,4.59,11.49,10.86-4.89,10.86-11.49,10.86S349.6,36.84,349.6,30.6Zm18.06,0a6.57,6.57,0,1,0-13.14,0,6.57,6.57,0,1,0,13.14,0Z"/><path class="cls-1" d="M402.7,20.1v21h-4L388.24,28.35V41.1h-4.8v-21h4L397.9,32.85V20.1Z"/><path class="cls-1" d="M428.71,36.6H419l-1.86,4.5h-5l9.36-21h4.8l9.38,21h-5.09Zm-1.53-3.69-3.33-8-3.33,8Z"/><path class="cls-1" d="M445.06,20.1h4.86v17h10.53v4H445.06Z"/><path class="cls-1" d="M499.44,41.1l-4.05-5.85h-4.47V41.1h-4.86v-21h9.09c5.61,0,9.12,2.91,9.12,7.62A6.83,6.83,0,0,1,500,34.35l4.71,6.75Zm-4.56-17h-4v7.32h4c3,0,4.47-1.38,4.47-3.66S497.85,24.06,494.88,24.06Z"/><path class="cls-1" d="M527.94,41.1l-5.07-7.29-5,7.29h-5.58l7.77-10.68L512.7,20.1h5.52l4.83,6.81,4.74-6.81H533l-7.32,10.14,7.83,10.86Z"/></g></g></svg>